<svg width="261" height="131" viewBox="0 0 261 131" fill="none" xmlns="http://www.w3.org/2000/svg">
<path d="M0.819378 10.2201C0.819378 4.75209 5.25208 0.319378 10.7201 0.319378H250.28C255.748 0.319378 260.181 4.75208 260.181 10.2201V28.1053C260.181 33.5733 255.748 38.006 250.28 38.006H10.7201C5.25208 38.006 0.819378 33.5733 0.819378 28.1053V10.2201Z" fill="#F6F7F9"/>
<path d="M0.819378 10.2201C0.819378 4.75209 5.25208 0.319378 10.7201 0.319378H250.28C255.748 0.319378 260.181 4.75208 260.181 10.2201V28.1053C260.181 33.5733 255.748 38.006 250.28 38.006H10.7201C5.25208 38.006 0.819378 33.5733 0.819378 28.1053V10.2201Z" stroke="#EAECF0" stroke-width="0.638756"/>
<path d="M13.5945 18.7751C13.5945 15.6378 16.1378 13.0945 19.2751 13.0945H20.0503C23.1876 13.0945 25.7309 15.6378 25.7309 18.7751V19.5503C25.7309 22.6876 23.1876 25.2309 20.0503 25.2309H19.2751C16.1378 25.2309 13.5945 22.6876 13.5945 19.5503V18.7751Z" stroke="#D0D5DD" stroke-width="0.638756"/>
<path d="M38.8254 12.8499C38.8254 10.692 40.5748 8.94263 42.7328 8.94263H55.3583C57.5163 8.94263 59.2656 10.692 59.2656 12.8499V25.4755C59.2656 27.6335 57.5163 29.3828 55.3583 29.3828H42.7328C40.5748 29.3828 38.8254 27.6335 38.8254 25.4755V12.8499Z" fill="#EAECF0"/>
<path d="M39.065 14.9426C39.065 11.7612 41.644 9.18216 44.8254 9.18216H52.8254C56.0069 9.18216 58.5859 11.7612 58.5859 14.9426V22.9426C58.5859 26.124 56.0069 28.7031 52.8254 28.7031H44.8254C41.644 28.7031 39.065 26.124 39.065 22.9426V14.9426Z" stroke="black" stroke-opacity="0.08" stroke-width="0.479067"/>
<rect x="66.9307" y="14.0527" width="56.8493" height="10.2201" rx="5.11005" fill="#EAECF0"/>
<rect x="67.25" y="14.3721" width="56.2105" height="9.58134" rx="4.79067" stroke="black" stroke-opacity="0.08" stroke-width="0.638756"/>
<g opacity="0.45">
<rect x="136.555" y="14.0526" width="88.1483" height="10.2201" rx="5.11005" fill="#F2F4F7"/>
<rect x="136.874" y="14.372" width="87.5096" height="9.58134" rx="4.79067" stroke="black" stroke-opacity="0.08" stroke-width="0.638756"/>
</g>
<g opacity="0.45">
<rect x="232.368" y="14.0526" width="15.3565" height="10.2201" rx="5.11005" fill="#F2F4F7"/>
<rect x="232.688" y="14.372" width="14.7177" height="9.58134" rx="4.79067" stroke="black" stroke-opacity="0.08" stroke-width="0.638756"/>
</g>
<path d="M0.819378 56.2106C0.819378 50.7426 5.25208 46.3099 10.7201 46.3099H250.28C255.748 46.3099 260.181 50.7426 260.181 56.2106V74.0957C260.181 79.5637 255.748 83.9965 250.28 83.9965H10.7201C5.25208 83.9965 0.819378 79.5638 0.819378 74.0957V56.2106Z" fill="#F6F7F9"/>
<path d="M0.819378 56.2106C0.819378 50.7426 5.25208 46.3099 10.7201 46.3099H250.28C255.748 46.3099 260.181 50.7426 260.181 56.2106V74.0957C260.181 79.5637 255.748 83.9965 250.28 83.9965H10.7201C5.25208 83.9965 0.819378 79.5638 0.819378 74.0957V56.2106Z" stroke="#EAECF0" stroke-width="0.638756"/>
<path d="M13.5945 64.7656C13.5945 61.6283 16.1378 59.085 19.2751 59.085H20.0503C23.1876 59.085 25.7309 61.6283 25.7309 64.7656V65.5407C25.7309 68.6781 23.1876 71.2214 20.0503 71.2214H19.2751C16.1378 71.2214 13.5945 68.6781 13.5945 65.5407V64.7656Z" stroke="#D0D5DD" stroke-width="0.638756"/>
<path d="M38.8254 58.8404C38.8254 56.6825 40.5748 54.9331 42.7328 54.9331H55.3583C57.5163 54.9331 59.2656 56.6825 59.2656 58.8404V71.466C59.2656 73.6239 57.5163 75.3733 55.3583 75.3733H42.7328C40.5748 75.3733 38.8254 73.6239 38.8254 71.466V58.8404Z" fill="#EAECF0"/>
<path d="M39.065 60.9331C39.065 57.7517 41.644 55.1726 44.8254 55.1726H52.8254C56.0069 55.1726 58.5859 57.7517 58.5859 60.9331V68.9331C58.5859 72.1145 56.0069 74.6936 52.8254 74.6936H44.8254C41.644 74.6936 39.065 72.1145 39.065 68.9331V60.9331Z" stroke="black" stroke-opacity="0.08" stroke-width="0.479067"/>
<rect x="66.9307" y="60.0432" width="56.8493" height="10.2201" rx="5.11005" fill="#EAECF0"/>
<rect x="67.25" y="60.3626" width="56.2105" height="9.58134" rx="4.79067" stroke="black" stroke-opacity="0.08" stroke-width="0.638756"/>
<g opacity="0.45">
<rect x="136.555" y="60.0431" width="88.1483" height="10.2201" rx="5.11005" fill="#F2F4F7"/>
<rect x="136.874" y="60.3625" width="87.5096" height="9.58134" rx="4.79067" stroke="black" stroke-opacity="0.08" stroke-width="0.638756"/>
</g>
<g opacity="0.45">
<rect x="232.368" y="60.0431" width="15.3565" height="10.2201" rx="5.11005" fill="#F2F4F7"/>
<rect x="232.688" y="60.3625" width="14.7177" height="9.58134" rx="4.79067" stroke="black" stroke-opacity="0.08" stroke-width="0.638756"/>
</g>
<path d="M0.819378 102.201C0.819378 96.7329 5.25208 92.3002 10.7201 92.3002H250.28C255.748 92.3002 260.181 96.7329 260.181 102.201V120.086C260.181 125.554 255.748 129.987 250.28 129.987H10.7201C5.25208 129.987 0.819378 125.554 0.819378 120.086V102.201Z" fill="#F6F7F9"/>
<path d="M0.819378 102.201C0.819378 96.7329 5.25208 92.3002 10.7201 92.3002H250.28C255.748 92.3002 260.181 96.7329 260.181 102.201V120.086C260.181 125.554 255.748 129.987 250.28 129.987H10.7201C5.25208 129.987 0.819378 125.554 0.819378 120.086V102.201Z" stroke="#EAECF0" stroke-width="0.638756"/>
<path d="M13.5945 110.756C13.5945 107.619 16.1378 105.075 19.2751 105.075H20.0503C23.1876 105.075 25.7309 107.619 25.7309 110.756V111.531C25.7309 114.668 23.1876 117.212 20.0503 117.212H19.2751C16.1378 117.212 13.5945 114.668 13.5945 111.531V110.756Z" stroke="#D0D5DD" stroke-width="0.638756"/>
<path d="M38.8254 104.831C38.8254 102.673 40.5748 100.923 42.7328 100.923H55.3583C57.5163 100.923 59.2656 102.673 59.2656 104.831V117.456C59.2656 119.614 57.5163 121.364 55.3583 121.364H42.7328C40.5748 121.364 38.8254 119.614 38.8254 117.456V104.831Z" fill="#EAECF0"/>
<path d="M39.065 106.923C39.065 103.742 41.644 101.163 44.8254 101.163H52.8254C56.0069 101.163 58.5859 103.742 58.5859 106.923V114.923C58.5859 118.105 56.0069 120.684 52.8254 120.684H44.8254C41.644 120.684 39.065 118.105 39.065 114.923V106.923Z" stroke="black" stroke-opacity="0.08" stroke-width="0.479067"/>
<rect x="66.9307" y="106.034" width="56.8493" height="10.2201" rx="5.11005" fill="#EAECF0"/>
<rect x="67.25" y="106.353" width="56.2105" height="9.58134" rx="4.79067" stroke="black" stroke-opacity="0.08" stroke-width="0.638756"/>
<g opacity="0.45">
<rect x="136.555" y="106.033" width="88.1483" height="10.2201" rx="5.11005" fill="#F2F4F7"/>
<rect x="136.874" y="106.353" width="87.5096" height="9.58134" rx="4.79067" stroke="black" stroke-opacity="0.08" stroke-width="0.638756"/>
</g>
<g opacity="0.45">
<rect x="232.368" y="106.033" width="15.3565" height="10.2201" rx="5.11005" fill="#F2F4F7"/>
<rect x="232.688" y="106.353" width="14.7177" height="9.58134" rx="4.79067" stroke="black" stroke-opacity="0.08" stroke-width="0.638756"/>
</g>
</svg>
